<svg xmlns="http://www.w3.org/2000/svg" viewBox="0 0 92.68 109.72"><defs><style>.cls-1{fill:#bbbaba;}.cls-2{fill:#666;}</style></defs><g id="레이어_2" data-name="레이어 2"><g id="레이어_1-2" data-name="레이어 1"><path class="cls-1" d="M78,29.16A3.87,3.87,0,0,0,77,27.4a3.63,3.63,0,0,0-2-.8c-6-.68-32.35-1.51-32.35-1.51-1.38,0-5-.19-9.25-.37l-17.43-.5a14.07,14.07,0,0,0-6.61,2.5,8.25,8.25,0,0,0-2.79,3.33C5.86,31.65,6,33,6.28,35.58A28.56,28.56,0,0,0,8.6,43.89a9.69,9.69,0,0,0,1.87,3.16c2,2.08,5.28,2.22,8.2,2.22l38,.07a60,60,0,0,0,12.43-.84,12.34,12.34,0,0,0,4.78-1.88c3.07-2.22,4.08-6.3,4.51-10.07A17.35,17.35,0,0,0,78,29.16Z"/><path class="cls-2" d="M80.42,28.5a6.06,6.06,0,0,0-4.21-4.21A16.11,16.11,0,0,0,73.43,24c-2.06-.17-4.12-.28-6.19-.39-5.3-.27-10.61-.48-15.91-.68-7.17-.26-14.35-.57-21.52-.77L17,21.75c-5.3-.15-12,3.14-13.25,8.74a16.1,16.1,0,0,0,0,5.32,29.63,29.63,0,0,0,1.31,6c1.13,3.31,2.49,7,5.82,8.63,3.7,1.83,8.23,1.34,12.22,1.35l14.5,0,14.75,0a110.07,110.07,0,0,0,14.07-.4c4.43-.56,8.7-1.65,11.42-5.46C80.13,42.85,80.75,38.75,81,35a17.93,17.93,0,0,0-.6-6.52c-.94-3.07-5.77-1.76-4.82,1.33,1,3.28.49,7.2-.49,10.44a8.74,8.74,0,0,1-1.93,3.63A8.57,8.57,0,0,1,68.63,46c-4.08.9-8.32.81-12.48.8l-13.49,0-13.25,0c-4.24,0-8.54.17-12.78-.06a7.2,7.2,0,0,1-4.08-1.15,7.45,7.45,0,0,1-1.88-3.18,27.06,27.06,0,0,1-2.12-9.5,3.82,3.82,0,0,1,.16-1.49A2.8,2.8,0,0,1,8.84,31s-.15.34-.06.13.21-.41.32-.6a8,8,0,0,1,3.52-2.86A12.5,12.5,0,0,1,14.84,27l1.08-.22c1-.17-.05,0,.06,0l1.12,0,11.75.34c6.44.18,12.87.46,19.31.69,8.69.3,17.45.44,26.11,1.25.2,0,.93.19.47,0,.53.16.67.23.86.75a2.55,2.55,0,0,0,3.07,1.74A2.52,2.52,0,0,0,80.42,28.5Z"/><path class="cls-1" d="M19.62,24.09c4.24.21,9.36.44,13.75.63l33.67,1c.08-3.44-1.72-6.62-3.6-9.5a27.62,27.62,0,0,0-3.69-4.77A23.14,23.14,0,0,0,55,8a41.83,41.83,0,0,0-22.2-5.42c-4.14.16-8.5,1.07-11.5,3.92A16.44,16.44,0,0,0,18,11.31,27.6,27.6,0,0,0,15.11,24.2l.83,0A20.44,20.44,0,0,1,19.62,24.09Z"/><path class="cls-2" d="M19.62,26.59c14,.68,28,1,42,1.43l5.4.16a2.53,2.53,0,0,0,2.5-2.5,17,17,0,0,0-2.36-8.17,38.82,38.82,0,0,0-4.78-6.93c-3.55-4-8.9-6.55-13.9-8.25A43.16,43.16,0,0,0,32,.08c-5.2.33-10.48,1.86-13.82,6.11a28.7,28.7,0,0,0-5.58,18,2.55,2.55,0,0,0,2.5,2.5c1.51,0,3-.18,4.51-.11,3.22.15,3.21-4.85,0-5-1.51-.07-3,.15-4.51.11l2.5,2.5a25.12,25.12,0,0,1,3.51-13.5c2.21-3.68,6-5.19,10.11-5.56A38.3,38.3,0,0,1,45.08,6.5C49.37,7.71,54,9.62,57.36,12.6A25.59,25.59,0,0,1,62,18.53c1.36,2.19,2.56,4.51,2.56,7.15l2.5-2.5-32.71-.93c-4.91-.14-9.81-.42-14.71-.66C16.4,21.43,16.41,26.43,19.62,26.59Z"/><path class="cls-1" d="M70.87,48.64l-53.58,1q-2.85,17.49-4.24,35.17c-.25,3.11-.45,6.32.56,9.27,2.07,6,8.53,9.32,14.69,10.89,8.33,2.13,17,2.21,25.61,2.16,7,0,14.91-.52,19.73-5.65,2.57-2.74,3.86-6.44,4.58-10.12C81,77,76.09,62.34,70.87,48.64Z"/><path class="cls-2" d="M70.87,46.14l-18.07.35L24,47.05l-6.67.13A2.54,2.54,0,0,0,14.88,49a368.27,368.27,0,0,0-4.46,37.62c-.32,5.44.8,10.61,4.87,14.48,3.57,3.39,8.32,5.33,13,6.47a85.71,85.71,0,0,0,18.41,2,98.9,98.9,0,0,0,16.14-.55c4.79-.69,9.69-2.48,12.93-6.25,3.71-4.32,5-10,5.51-15.58,1.31-13.53-3.3-26.84-8-39.29a2.58,2.58,0,0,0-3.08-1.74,2.51,2.51,0,0,0-1.74,3.07c3.92,10.31,7.8,21,8.06,32.2.12,4.87-.26,10.31-2.38,14.79a13.53,13.53,0,0,1-9.47,7.38c-4.43,1.12-9.09,1-13.62,1a105.49,105.49,0,0,1-16.95-1c-4.5-.73-9.07-1.82-13-4.29a13.11,13.11,0,0,1-4.15-4,12,12,0,0,1-1.64-6.52c0-3.14.37-6.3.66-9.42s.63-6.53,1-9.79Q18.13,60,19.71,50.35l-2.42,1.83,18.08-.35,28.83-.56,6.67-.13C74.08,51.08,74.09,46.08,70.87,46.14Z"/><path class="cls-1" d="M37.68,49.59c-.76,8.36-1.39,14.92-2.06,19.67-.18,1.34-.59,4.06,1,6.44a7.79,7.79,0,0,0,4,3,18.83,18.83,0,0,0,5.2.42,9.61,9.61,0,0,0,5.7-1.75c2.39-1.89,2.53-5.19,2.61-7.14.26-5.91.64-12.71,1-20.65Z"/><path class="cls-2" d="M35.17,49.59c-.49,5.34-1,10.69-1.59,16a53.74,53.74,0,0,0-.65,5.61,9.93,9.93,0,0,0,3.17,7.69,10.86,10.86,0,0,0,6.82,2.69,17,17,0,0,0,7.9-1A8.92,8.92,0,0,0,55.94,75a23.66,23.66,0,0,0,.73-6.23c.29-6.38.65-12.76,1-19.15a2.53,2.53,0,0,0-2.51-2.51H37.68c-3.24,0-3.24,5,0,5H55.12l-2.51-2.51c-.25,5.08-.52,10.16-.77,15.25-.1,2-.17,4.1-.29,6.16a6.36,6.36,0,0,1-1.31,4.13C49,76.43,47,76.61,45.3,76.63a14.4,14.4,0,0,1-3.82-.29,3.42,3.42,0,0,1-1.56-.75c-1.73-1.27-2.08-3.16-1.93-5.17,0,0,.07-.65,0-.35s0-.25,0-.29c.06-.51.14-1,.2-1.53.13-.93.24-1.87.35-2.81.62-5.27,1.09-10.56,1.57-15.85a2.53,2.53,0,0,0-2.51-2.51A2.56,2.56,0,0,0,35.17,49.59Z"/><path class="cls-2" d="M62,64.08c3.22,0,3.22-5,0-5s-3.22,5,0,5Z"/><path class="cls-2" d="M25.21,63.29c3.21,0,3.22-5,0-5s-3.22,5,0,5Z"/><path class="cls-1" d="M89,57c-.65-1.94-1.29-3.84-2.88-5.29-4.64-4.21-13.09-.74-13.45-.59l6,21c4.7.2,9-1.69,10.76-5.08S89.84,59.63,89,57Z"/><path class="cls-2" d="M91.36,56.31c-.93-2.77-2-5.35-4.45-7.14a11.55,11.55,0,0,0-6.39-2.05A20.43,20.43,0,0,0,72,48.68a2.57,2.57,0,0,0-1.75,3.08l5.24,18.33.76,2.67a2.56,2.56,0,0,0,2.41,1.83c4.29.14,9-1.21,11.79-4.67,3.25-4.06,2.49-9,1-13.61a2.5,2.5,0,1,0-4.82,1.33,19.5,19.5,0,0,1,1.19,4.74,7.12,7.12,0,0,1-.17,2.44,4.69,4.69,0,0,1-.41,1,4.48,4.48,0,0,1-.28.47s-.33.47-.17.27c-1.84,2.35-5,3.09-8.08,3L81,71.43,75.79,53.09,75,50.43,73.28,53.5a17.58,17.58,0,0,1,2.12-.71c.68-.19,1.37-.36,2.06-.48l.59-.1c.43-.06-.6,0,.18,0,.42,0,.84-.07,1.26-.08s.86,0,1.28,0l.52,0c-.43,0,.36.07.36.07a6,6,0,0,1,2,.71,4.79,4.79,0,0,1,1.7,1.71,14.31,14.31,0,0,1,1.23,3,2.55,2.55,0,0,0,3.08,1.74A2.52,2.52,0,0,0,91.36,56.31Z"/><path class="cls-1" d="M5.73,53.11c-2.64,2.49-2.91,6-3.14,9-.18,2.4-.39,5.22,1.15,8,2.76,5,9,5.87,9.88,6l3-25C16,50.93,9.74,49.32,5.73,53.11Z"/><path class="cls-2" d="M4,51.34C1.38,53.9.54,57.23.21,60.74s-.46,7.33,1.37,10.63C4,75.74,8.84,78,13.62,78.59c1.45.18,2.36-1.3,2.5-2.5l3-25a2.51,2.51,0,0,0-1.84-2.41C12.72,47.45,7.54,48.1,4,51.34,1.57,53.51,5.11,57,7.49,54.88a7.64,7.64,0,0,1,5.25-1.76,11.74,11.74,0,0,1,1.33.05,5.9,5.9,0,0,1,.59.06c-.33,0-.19,0,.05,0,.42.08.84.15,1.25.26l-1.84-2.41-3,25,2.5-2.5c.15,0,.64.11,0,0q-.45-.08-.9-.18a14.6,14.6,0,0,1-2.33-.72,1.84,1.84,0,0,1-.29-.13c-.26-.12-.51-.25-.77-.39a11.26,11.26,0,0,1-1.27-.8,7.76,7.76,0,0,1-2-2.21c-1.42-2.36-1.14-5.1-.92-7.73.19-2.39.58-4.79,2.34-6.54C9.78,52.61,6.25,49.07,4,51.34Z"/><path class="cls-2" d="M20.17,85.94c2,9.64,12.09,13.58,20.79,14.82a84.07,84.07,0,0,0,15.28,1c4.62-.19,9.09-1.48,12.07-5.22s4-8.09,5-12.51c.66-3.13-4.16-4.48-4.82-1.32s-1.41,6.54-3.12,9.38c-1.83,3.06-4.74,4.38-8.23,4.62A71.48,71.48,0,0,1,44,96.15c-4-.45-8.09-1.12-11.68-2.92S25.82,88.58,25,84.61a2.53,2.53,0,0,0-3.08-1.75,2.56,2.56,0,0,0-1.75,3.08Z"/></g></g></svg>