<svg xmlns="http://www.w3.org/2000/svg" viewBox="0 0 25.03 26.02"><defs><style>.cls-1{fill:#f5b244;stroke:#f18c40;}.cls-1,.cls-3{stroke-miterlimit:10;stroke-width:3px;}.cls-2{fill:#f18c40;}.cls-3{fill:#4ba573;stroke:#1d5d42;}</style></defs><g id="레이어_2" data-name="레이어 2"><g id="레이어_1-2" data-name="레이어 1"><path class="cls-1" d="M23.48,16.39a9.33,9.33,0,0,1-3.17,6c-2.56,2.1-5.83,2.14-7.75,2.16h-.5c-1.81,0-5.85-.12-8.44-2.86a8,8,0,0,1-2-4.15,8.45,8.45,0,0,1,1-5.13c1.8-3.63,6-5.78,10-5.89,3.45-.1,8.16,1.31,10.06,5.08A8.82,8.82,0,0,1,23.48,16.39Z"/><ellipse class="cls-2" cx="10.53" cy="20.97" rx="0.89" ry="0.83"/><ellipse class="cls-2" cx="13.76" cy="18.68" rx="0.89" ry="0.83"/><ellipse class="cls-2" cx="16.92" cy="19.49" rx="0.89" ry="0.83"/><ellipse class="cls-2" cx="19.27" cy="17.25" rx="0.89" ry="0.83"/><path class="cls-3" d="M6.77,1.53A5.9,5.9,0,0,0,9.34,5.65a5.56,5.56,0,0,0,2.13.46h0a4.14,4.14,0,0,0-.11-1.41,4.63,4.63,0,0,0-.88-1.63A5.19,5.19,0,0,0,6.77,1.53Z"/></g></g></svg>