<svg xmlns="http://www.w3.org/2000/svg" viewBox="0 0 57 57"><defs><style>.cls-1{fill:#006173;}.cls-2{fill:none;}</style></defs><g id="레이어_2" data-name="레이어 2"><g id="레이어_1-2" data-name="레이어 1"><path class="cls-1" d="M13.39,16.82A15,15,0,0,0,2,27.5c-.32,1.21,2,.72,2.4.43a31.67,31.67,0,0,0,5.14-4.75c1.65-1.71,3.54-3.44,6-3.52l-1.21-1.07a38.72,38.72,0,0,0-3.27,14.94c0,.84,1.08,1,1.7.75a4.34,4.34,0,0,0,2.7-2.73,35.26,35.26,0,0,0,1.71-4.67A35.08,35.08,0,0,0,18.57,16.7l-2.91.52A23.78,23.78,0,0,0,27.25,28.43c.66.3,2.59.16,2.59-.92,0-2.67-2.43-5.05-4.07-7a56,56,0,0,0-6.2-6.22L17.71,15.9c4.51.23,9.76.13,13-3.52.56-.63.11-1.28-.66-1.32-3.28-.14-6.61-.5-9.89-.39-2.46.09-5.28,1.17-5.88,3.82-.29,1.29,2.66.89,2.92-.28.5-2.2,3.42-1.61,5.07-1.53L29,13l-.66-1.32C26,14.34,22,14.14,18.77,14c-.5,0-2.8.76-1.87,1.57a56.73,56.73,0,0,1,5.63,5.55C23.35,22,24.14,23,24.9,24s2,2.34,2,3.8l2.59-.92a22.41,22.41,0,0,1-11-10.42c-.47-.95-2.92-.65-2.91.53a35.65,35.65,0,0,1-.88,8.23,33.4,33.4,0,0,1-1.19,4c-.24.63-.49,1.25-.76,1.87-.12.27-.24.55-.37.82,0,.09-.5.69-.15.57l1.69.74a37.57,37.57,0,0,1,3.09-14.43c.37-.85-.57-1.09-1.22-1.07a11.74,11.74,0,0,0-7.28,3.31c-2.09,1.86-3.73,4.18-6.09,5.73l2.4.43a11.89,11.89,0,0,1,9-8.63c.52-.11,1.38-.63,1.21-1.27s-1.18-.6-1.69-.5Z"/><path class="cls-1" d="M16.46,27.77c.44,7.51.84,15.26-1.83,22.44-.15.41,2.59.17,2.85-.54,2.7-7.26,2.32-15.08,1.88-22.68,0-.42-2.94.05-2.9.78Z"/><path class="cls-1" d="M20.64,28.23a3.18,3.18,0,0,1,.6,2.13c.09.89.14,1.78.17,2.67a41.38,41.38,0,0,1-.19,5.34A42.19,42.19,0,0,1,18.74,49c-.2.52,2.58.24,2.86-.51a43.32,43.32,0,0,0,2.52-10.89,40.45,40.45,0,0,0,.17-5.72c-.05-1.4.17-3.59-.92-4.63-.55-.53-3.18.56-2.73,1Z"/><path class="cls-1" d="M18.21,34.65a6.65,6.65,0,0,0,3.43,1.06,3.79,3.79,0,0,0,1.06-.12,3.11,3.11,0,0,0,1-.43c.12-.09.4-.28.33-.47s-.35-.23-.52-.24a5.46,5.46,0,0,1-.58,0l-.12,0h.07l-.28-.06A5.76,5.76,0,0,1,21.53,34l.18.08a5.86,5.86,0,0,1-.78-.42,1.26,1.26,0,0,0-.74-.13,3.63,3.63,0,0,0-1.13.25,2,2,0,0,0-.81.46c-.09.12-.22.31,0,.43Z"/><path class="cls-1" d="M18.23,42.13a8.61,8.61,0,0,0,3.83,1.33,2.16,2.16,0,0,0,1.15-.2,1.53,1.53,0,0,0,.74-.68.75.75,0,0,0-.06-.8,1.19,1.19,0,0,0-.82-.41,8.68,8.68,0,0,1-.89-.14l.33.07a7.45,7.45,0,0,1-1.64-.58l.28.14c-.23-.12-.46-.25-.68-.39a1.56,1.56,0,0,0-1-.22,2.06,2.06,0,0,0-1.09.39,1.2,1.2,0,0,0-.51.77.79.79,0,0,0,.35.72Z"/><path class="cls-1" d="M23.34,43c4.53,1.68,10.15,4.36,10.35,9.94,0,.45,2.92,0,2.9-.78a9.13,9.13,0,0,0-3.3-6.32A22.3,22.3,0,0,0,26.08,42a2.92,2.92,0,0,0-1.86.18c-.11,0-1.32.63-.88.79Z"/><path class="cls-1" d="M12.26,44.62A26.3,26.3,0,0,0,1.2,47.13c-.34.16-1.21.62-.79,1.11s1.48.2,1.91,0a20.35,20.35,0,0,1,8.79-2A2.48,2.48,0,0,0,13,45.41c.38-.55-.33-.79-.77-.79Z"/><path class="cls-1" d="M30.26,40a8.79,8.79,0,0,1,2-2.77c1.19-.91,1.77,0,2.91.38a3.68,3.68,0,0,0,2.86-.41c.91-.5,1.49-1.43,2.59-1.2a28.53,28.53,0,0,0,3.16.77,7.93,7.93,0,0,0,3.47-.53c2.48-.93,4.27-2.91,6.58-4.13,1.74-.93.16-2.32-1.25-1.57a27.82,27.82,0,0,0-3.53,2.36,8.14,8.14,0,0,1-3.62,1.88C44.21,35,43,34.27,41.8,34a5.16,5.16,0,0,0-3.55.54,13.16,13.16,0,0,0-1.24.87c-.24.18-.55.26-.31.32.44.11-.34-.36-.43-.4a4.81,4.81,0,0,0-3.49-.43c-2.57.6-4,2.65-5.27,4.82-.77,1.35,2.17,1.28,2.75.25Z"/><path class="cls-1" d="M38.78,44.12a9.16,9.16,0,0,1,3.45-2.43c1.27-.41,2.18.57,2.9,1.45,1,1.23,2.31,1.26,3.79.86a12.57,12.57,0,0,0,2.49-1,12.93,12.93,0,0,1,1.69-.87c.23-.08,1.18-.4.88-.76s-1.58.1-1.86.19a15.85,15.85,0,0,0-2.24,1.07l-1,.5c-.07,0-.21.08-.2.1.39,0,.5,0,.33-.08a.7.7,0,0,1-.2-.08,6.64,6.64,0,0,1-1.39-1.41,3.2,3.2,0,0,0-1.78-1,9,9,0,0,0-5.46.94,14,14,0,0,0-4,2.85c-.43.44.4.43.67.4a3.44,3.44,0,0,0,1.94-.67Z"/><path class="cls-1" d="M41.65,52.06a22.49,22.49,0,0,1,3-2.53c.33-.22.67-.44,1-.63a2.38,2.38,0,0,1,.32-.16c.05,0,.53-.2.26-.12.08,0,.43-.11.16-.06l.26,0c-.15,0-.14,0,0,0-.22,0,.16.05.17.05l.29.13c.87.43,1.35,1.37,2.17,1.88,1.38.85,3.23.31,4.58-.32.38-.18,1.18-.63.77-1.15s-1.49-.21-1.91,0l-.38.17q-.28.11-.12.06c-.07,0-.47.1-.19.06-.17,0-.18,0,0,0h0c-.12-.12,0,0-.12,0a3,3,0,0,1-.94-.81,4.54,4.54,0,0,0-3.36-1.64c-3.2,0-6.12,2.57-8.29,4.68-.42.41-.33.88.27,1a2.56,2.56,0,0,0,2-.55Z"/><path class="cls-1" d="M42.81,4.65A4.77,4.77,0,0,0,40.89,9.4a4.69,4.69,0,0,0,3.55,3.47,5.4,5.4,0,0,0,3.85-.64,4.84,4.84,0,0,0,1.83-2.05,7.23,7.23,0,0,0,.68-2.31,5,5,0,0,0-.21-2.54c-.93-2.21-3.66-2.11-5.65-1.81-.51.08-1.51.33-1.66.93S44.2,5,44.51,5L45,4.91l.23,0c.24,0-.32,0,.06,0h.51a2.09,2.09,0,0,1,.35,0,2.11,2.11,0,0,1,1.36.9,4.81,4.81,0,0,1,.06,3.83,4.57,4.57,0,0,1-.83,1.61s-.22.23-.12.14-.08.06-.1.08l-.08.06.05,0c-.14.07-.12.07,0,0-.06,0-.32.1.08,0,0,0-.23.08,0,0s0,0-.05,0l-.24,0A3.64,3.64,0,0,1,43.85,8.9a3.72,3.72,0,0,1,0-2.19A3.36,3.36,0,0,1,45.11,5c.15-.11.36-.36.3-.57s-.36-.32-.55-.35a2.9,2.9,0,0,0-2,.55Z"/><path class="cls-1" d="M40.44,4.61A3.23,3.23,0,0,1,40,4.2l.21.22a4.15,4.15,0,0,1-.7-1l.13.27-.11-.24a.6.6,0,0,0-.23-.38.83.83,0,0,0-.39-.27,1.21,1.21,0,0,0-.53-.09,1.61,1.61,0,0,0-.58,0,1.83,1.83,0,0,0-.94.59,1,1,0,0,0-.22.87,4.5,4.5,0,0,0,.65,1.2,6.31,6.31,0,0,0,.55.6,2.94,2.94,0,0,0,.44.35,1.51,1.51,0,0,0,1,.26,1.49,1.49,0,0,0,.59-.13,1.62,1.62,0,0,0,.5-.27,1.24,1.24,0,0,0,.5-.82l0-.3a.93.93,0,0,0-.34-.49Z"/><path class="cls-1" d="M46.2,16.5l.39,2.37c0,.25.37.39.57.44a2.24,2.24,0,0,0,1.09,0,2.08,2.08,0,0,0,1-.51.77.77,0,0,0,.28-.66l-.39-2.38c0-.24-.38-.39-.58-.44a2.2,2.2,0,0,0-1.08.05,2.16,2.16,0,0,0-1,.5.73.73,0,0,0-.28.67Z"/><path class="cls-1" d="M40.78,15a24,24,0,0,0-3.52,2c-.14.1-.36.34-.31.54s.37.29.54.31a3.05,3.05,0,0,0,2-.54L39.9,17,40,17l-.15.1L40,17l.7-.42.72-.39.34-.17c.12-.06.62-.29.11-.06a2,2,0,0,0,.79-.51c.11-.14.19-.36,0-.5a1.14,1.14,0,0,0-.76-.19,3.19,3.19,0,0,0-1.14.24Z"/><path class="cls-1" d="M39.53,11.4h-.46c-.1,0-.07,0,.09,0a1,1,0,0,0-.17,0,4.61,4.61,0,0,1-.73-.19l.18.06A4,4,0,0,1,36.73,10l.08.11L36.68,10a.6.6,0,0,0-.5-.19,3.82,3.82,0,0,0-1.06.15,3.74,3.74,0,0,0-1,.4c-.08.06-.45.28-.34.42a4.33,4.33,0,0,0,1.58,1.33,5,5,0,0,0,2.28.47,4.16,4.16,0,0,0,1.05-.15,3.17,3.17,0,0,0,1-.4c.13-.08.4-.23.35-.41s-.39-.2-.51-.19Z"/><rect class="cls-2" width="57" height="57"/><path class="cls-1" d="M50.34,11.25a8,8,0,0,0,1.74,1.89.53.53,0,0,0,.3.09,1.61,1.61,0,0,0,.44,0A4,4,0,0,0,54,13l.33-.14a1.75,1.75,0,0,0,.48-.3c.1-.11.21-.26.05-.39a7.68,7.68,0,0,1-1.31-1.3l.08.1c-.12-.15-.23-.31-.34-.47a.22.22,0,0,0-.18-.14.62.62,0,0,0-.33-.07,3.39,3.39,0,0,0-1.06.14,3.45,3.45,0,0,0-1,.41l-.2.15a.3.3,0,0,0-.14.28Z"/><path class="cls-1" d="M51.89,6.87a9.27,9.27,0,0,0,2.84-.67,2.17,2.17,0,0,0,.8-.47c.11-.12.21-.31,0-.44l-.18-.08a1.84,1.84,0,0,0-.57,0,3.63,3.63,0,0,0-1.13.25l-.5.19.38-.12-.49.13.39-.09a4.51,4.51,0,0,1-.53.09l.36,0-.19,0A4.38,4.38,0,0,0,52,5.83a2.27,2.27,0,0,0-.47.23,1.27,1.27,0,0,0-.33.24c-.1.13-.22.31,0,.44l.18.08a1.84,1.84,0,0,0,.57,0Z"/><path class="cls-1" d="M49.47,1.61a1,1,0,0,1,0-.39l0,.14A1.23,1.23,0,0,1,49.57,1a.15.15,0,0,0,0-.2.3.3,0,0,0-.22-.13,1.42,1.42,0,0,0-.41,0,2.29,2.29,0,0,0-.52.05L48,.72A4.71,4.71,0,0,0,47.3,1L47,1.14a.8.8,0,0,0-.32.31,1.06,1.06,0,0,0-.13.39,1.63,1.63,0,0,0,0,.54.25.25,0,0,0,.18.15.65.65,0,0,0,.34.07,2.68,2.68,0,0,0,.49,0,3.82,3.82,0,0,0,.57-.11l.38-.12a3.45,3.45,0,0,0,.61-.3l.2-.15a.34.34,0,0,0,.13-.29Z"/></g></g></svg>