<svg xmlns="http://www.w3.org/2000/svg" viewBox="0 0 57 57"><defs><style>.cls-1{fill:none;}.cls-2{fill:#006173;}</style></defs><g id="레이어_2" data-name="레이어 2"><g id="레이어_1-2" data-name="레이어 1"><rect class="cls-1" width="57" height="57"/><path class="cls-2" d="M3.3,10.59c.19,2.27-.24,4.56.09,6.82a7.14,7.14,0,0,0,.95,2.77A3.31,3.31,0,0,0,6.63,21.8,9.69,9.69,0,0,0,13,21a7.31,7.31,0,0,0,3.49-4.61,19.67,19.67,0,0,0,.79-7.47c-.06-.69-3-.13-2.9.77A18.56,18.56,0,0,1,14,15.36c-.35,1.59-.85,3.48-2.09,4.63a3.27,3.27,0,0,1-3.26.5c-1.63-.44-2.17-2.59-2.36-4C6,14.24,6.38,12,6.2,9.82c-.06-.69-3-.14-2.9.77Z"/><path class="cls-2" d="M8.62,12q-1.17,13-1.42,26c0,1.23,2.88.64,2.9-.35q.24-13,1.43-26c.1-1.2-2.81-.66-2.91.35Z"/><path class="cls-2" d="M49.05,19.58c-2.83-1.67-5.81-5.88-3.57-9.11.34-.5,1.21-1.62,1.8-1.75a3.45,3.45,0,0,1,2.19.79,5.37,5.37,0,0,1,2.39,4,5.3,5.3,0,0,1-2.1,4.65c-1.29.91-2.25,1.19-2.34,2.95-.23,4.39-.19,8.82-.26,13.22,0,.45,2.89.06,2.9-.78q.09-6.24.24-12.49c0-1.2.05-1.86,1.1-2.47a7.37,7.37,0,0,0,1.73-1.31,6.19,6.19,0,0,0,1.64-3.84,5.86,5.86,0,0,0-4.93-5.86,7.59,7.59,0,0,0-7.5,3.86c-1.81,3.36,1.14,7.45,4,9.12.51.3,1.37,0,1.87-.16.14,0,1.3-.56.86-.82Z"/><path class="cls-2" d="M26.1,32.26a10.79,10.79,0,0,1,0-2.54,3.84,3.84,0,0,1,.34-1.2,2,2,0,0,1,.32-.49c-.82-.05-1,.1-.65.44a7.88,7.88,0,0,0,.57,1.27,12.4,12.4,0,0,1,.41,1.31,14.56,14.56,0,0,1,.42,2.71c0,.36.64.46.89.46l6.46.09c1.79,0,4.48-.5,5.57,1.28,2,3.2,1.7,7.84.14,11.13-.61,1.29,2.28,1,2.7.1C45,43.1,45.41,38,43.06,34.39c-1.26-1.93-3.78-1.74-5.8-1.77l-7.79-.1.9.46c-.15-2.28-.76-6.92-3.93-6.46S23,30.42,23.2,33c.09,1,3,.37,2.9-.78Z"/><path class="cls-2" d="M22.61,33.15c-2.89.6-6.91,1.91-7.72,5.11a45.66,45.66,0,0,0-1.27,10.21c0,.53,2.88.12,2.9-.77a47.88,47.88,0,0,1,.95-8.61c.25-1.24.43-2.56,1.52-3.37a8.06,8.06,0,0,1,3.11-1.41c.42-.09,1.56-.29,1.69-.82s-.94-.39-1.18-.34Z"/><path class="cls-2" d="M8.8,48.62c6.87-.14,13.74-.18,20.62-.18s13.85-.49,20.52.94a3,3,0,0,0,2-.33c.24-.14,1-.76.31-.9-6.76-1.45-13.8-1.06-20.68-1.07-7.2,0-14.41,0-21.61.18-.54,0-1.64.21-1.93.73s.26.64.73.63Z"/><path class="cls-2" d="M24.46,10.44v2a.42.42,0,0,0,.07.36.48.48,0,0,0,.26.28,1,1,0,0,0,.43.14,1.41,1.41,0,0,0,.54,0,2.35,2.35,0,0,0,1.09-.39l.26-.21a1,1,0,0,0,.27-.49v-2a.46.46,0,0,0-.07-.36.54.54,0,0,0-.26-.28,1,1,0,0,0-.44-.14,1.56,1.56,0,0,0-.53,0,2.39,2.39,0,0,0-1.1.39l-.25.22a.89.89,0,0,0-.27.48Z"/><path class="cls-2" d="M28.67,10.38a7.19,7.19,0,0,1,.17,1.21v-.26a7.74,7.74,0,0,1,0,1.27.76.76,0,0,0,.34.7,1.64,1.64,0,0,0,1,.21,2.26,2.26,0,0,0,1.09-.4,1.19,1.19,0,0,0,.51-.75,8.2,8.2,0,0,0-.16-2.75A.9.9,0,0,0,31,9a2,2,0,0,0-1.1,0,1.83,1.83,0,0,0-.95.55.92.92,0,0,0-.24.79Z"/><path class="cls-2" d="M20.28,16.28A4.8,4.8,0,0,0,22.2,21.1a9.57,9.57,0,0,0,6.22,1.54c2.28-.08,4.6-.52,5.95-2.54A17.34,17.34,0,0,0,36.74,14c.17-.86-2.71-.39-2.88.45a19.69,19.69,0,0,1-1.7,5,4.92,4.92,0,0,1-1.26,1.73c-.13.1-.06.05.05,0a3.07,3.07,0,0,1-.52.06c-.42,0-.85.05-1.28.06a6.75,6.75,0,0,1-4.47-1.41,4.21,4.21,0,0,1-1.52-4c.2-.83-2.68-.39-2.88.45Z"/></g></g></svg>