<svg xmlns="http://www.w3.org/2000/svg" viewBox="0 0 57 57"><defs><style>.cls-1{fill:none;}.cls-2{fill:#006173;}</style></defs><g id="레이어_2" data-name="레이어 2"><g id="레이어_1-2" data-name="레이어 1"><rect class="cls-1" width="57" height="57"/><path class="cls-2" d="M7.23,23.81q17.22-.15,34.4-1.68c1.67-.15,2.19-2.42.23-2.25Q24.69,21.41,7.45,21.57c-1.69,0-2.19,2.26-.22,2.24Z"/><path class="cls-2" d="M6,24.75c.66,4.57,1.63,9.38,3.71,13.54a14.48,14.48,0,0,0,9.14,7.48,21.27,21.27,0,0,0,12.49,0,15.35,15.35,0,0,0,8.82-7.71c2.41-4.64,2.66-10,2.68-15.09,0-1.48-2.92-1-2.93.24,0,7.09-.63,16.78-8.07,20.24A16.41,16.41,0,0,1,20.88,44a12.84,12.84,0,0,1-8.36-6.59c-2.09-4.07-3-8.92-3.65-13.41-.19-1.28-3.09-.57-2.9.77Z"/><path class="cls-2" d="M44.87,21.82s.2-.25.25-.24-.25.11-.33.13l-.26,0c.14,0,.16,0,0,0l.25,0a2.79,2.79,0,0,1,1.52.78A6.46,6.46,0,0,1,48.05,26c.24,1.15.34,2.68-.69,3.49a6.64,6.64,0,0,1-1.67.82c-.26.1,0,0-.25.08s-.22.06-.09,0l-.24,0a3.11,3.11,0,0,1-.77,0,3.2,3.2,0,0,0-2,.35c-.24.12-1,.67-.34.81a9.56,9.56,0,0,0,5.77-1c1.39-.61,2.94-1.42,3.27-3a7.17,7.17,0,0,0-.6-4.13,4.67,4.67,0,0,0-2.78-2.8A5.59,5.59,0,0,0,42.23,22c-.43.48.39.55.7.53a3.1,3.1,0,0,0,1.94-.71Z"/><path class="cls-2" d="M17.76,30.31A6.48,6.48,0,0,0,18,36.57a6.86,6.86,0,0,0,5.25,3.07,2,2,0,0,0,1.9-.86c.32-.62-.29-1-.85-1.08l-.31,0c-.08,0-.28-.05-.1,0a5.72,5.72,0,0,1-.59-.17,2.5,2.5,0,0,1-.42-.16,4.63,4.63,0,0,1-.54-.29,5,5,0,0,1-1.67-1.7,5.1,5.1,0,0,1-.16-4.8c.3-.61-.27-1.05-.85-1.08a2,2,0,0,0-1.89.85Z"/><path class="cls-2" d="M19.45,30.73A8.73,8.73,0,0,1,23.5,38c0,.22.41.33.55.36a2.32,2.32,0,0,0,1.08-.08c.5-.14,1.28-.43,1.27-1.06a9.44,9.44,0,0,0-4.64-7.82,1.67,1.67,0,0,0-.94-.08,2.81,2.81,0,0,0-1.1.37c-.42.26-.85.71-.27,1.06Z"/><path class="cls-2" d="M22.48,29.13a6.59,6.59,0,0,1,1.39-.48,2.5,2.5,0,0,1,1.56.32,4.42,4.42,0,0,1,1.84,3.24,5.36,5.36,0,0,1-.77,3.68,5.09,5.09,0,0,1-1.11,1.25,5,5,0,0,1-.58.4l-.23.11-.11,0c.14,0,.12,0,0,0s-1.42.38-1.33.83,1.38.09,1.56,0a8.08,8.08,0,0,0,4.46-2.83,5.9,5.9,0,0,0,1-4.63,4.19,4.19,0,0,0-3-3.52c-2.13-.49-4.35.38-6.29,1.19-.28.11-1,.55-.36.73a3.4,3.4,0,0,0,2-.38Z"/><path class="cls-2" d="M20.21,11a7.35,7.35,0,0,0-3.48.36,4.75,4.75,0,0,0-2.45,1.59,2.38,2.38,0,0,0,.79,3.5c.73.34,2,.45,2,1.47l.15-.25a2.08,2.08,0,0,1,.63-.25,2.86,2.86,0,0,1,.76-.16c.13,0,.09,0,0,0s-.15,0-.09,0a1.24,1.24,0,0,1-.58-.4.61.61,0,0,0-.5-.17,4.18,4.18,0,0,0-1.06.16c-.12,0-1.55.51-1.34.78.75,1,2.14.81,3.2.52a5.15,5.15,0,0,0,1.31-.53c.1-.06.36-.2.42-.34a.64.64,0,0,0,0-.41,1.83,1.83,0,0,0-.95-.91c-.8-.37-1.71-.45-2.09-1.35a2.29,2.29,0,0,1,.22-2.18,1.77,1.77,0,0,1,.41-.41c.14-.12,0,0,0,0l.18-.11-.08.05c.26-.13-.22.08-.06,0s-.33.09-.14,0-.4.07-.09,0l-.15,0c.16,0,.13,0,0,0a1,1,0,0,1,.34,0h0l.25,0a3.72,3.72,0,0,0,2-.39c.21-.1,1-.56.38-.68Z"/><path class="cls-2" d="M26.27,11.62a2.9,2.9,0,0,0-2-.13,3.48,3.48,0,0,0-1.61.84,1.89,1.89,0,0,0-.28,2.46A3.78,3.78,0,0,0,24.2,16a3.42,3.42,0,0,1,.43.21l.08.06c.11,0-.07,0-.06,0s.16.14.19.17.13.2.09.11,0,.12,0,.15,0,.22,0,.08a1.5,1.5,0,0,1-.06.29c.07-.25-.07.13-.08.11s.13-.26,0,0l-.06.05.14-.1-.1.06c-.09.06,0,0,.16-.08l.23-.07h0s.44,0,.2,0h0c.19,0-.1,0-.12,0s-.16,0,0,0-.07,0-.09,0a4,4,0,0,1-.71-.38,1.76,1.76,0,0,0-1-.11,2.58,2.58,0,0,0-1.1.38c-.43.29-.82.79-.24,1.15a4.22,4.22,0,0,0,3.44.55c1-.28,2.31-1.11,2.24-2.33,0-.78-.76-1.24-1.4-1.53-.3-.13-.61-.25-.9-.41l-.11-.07s.11.09,0,0a1.8,1.8,0,0,1-.2-.19,1.3,1.3,0,0,1-.15-.18l-.09-.13c0,.08,0,0,0,0s-.08-.19-.1-.29,0-.1,0-.15,0-.11,0,0a1.59,1.59,0,0,1,.06-.3s0-.11,0,0,0-.07,0-.07.08-.14,0,0,.06,0,.05,0-.23.17-.12.1-.29.15-.14.07-.32.1-.36.11l-.24,0H24c-.27-.07-.11,0,0,0A2.29,2.29,0,0,0,26,12.78c.4-.27.86-.83.25-1.16Z"/><path class="cls-2" d="M32.8,10.41c-2.14-.12-4.61,1.38-4.31,3.77A3,3,0,0,0,30,16.28c.19.13.39.24.57.38s0,.05,0,0a.93.93,0,0,1,.14.14,1,1,0,0,1,.17.24c-.06-.14,0,.12,0,.13s0,.12,0,.07,0,0,0,.05q.09-.18,0,0l.09-.1a1.45,1.45,0,0,1,1.56-.27,2.09,2.09,0,0,0-2.07.22c-.4.3-.85,1-.2,1.33a2.63,2.63,0,0,0,2.48-.15,1.91,1.91,0,0,0,1.08-1.46c0-1.16-1-1.68-1.82-2.27-.2-.15,0,.07-.1-.1a2.31,2.31,0,0,1-.2-.24s-.16-.29-.09-.13l-.1-.25a2.44,2.44,0,0,1-.06-.26s0-.38,0-.2a2.48,2.48,0,0,1,.06-.54c0-.05,0-.11,0-.17,0,.09,0,.11,0,0a2.34,2.34,0,0,0,.15-.27c-.1.2,0,0,.05,0l.12-.13-.11.1.14-.1c.13-.08.1-.07-.09,0l.09,0c.15-.07.1,0-.13,0l.13,0c.11,0,.06,0-.17,0l.17,0c-.22,0-.25,0-.1,0a2.06,2.06,0,0,0,1.9-.84c.29-.62-.25-1-.84-1.05Z"/></g></g></svg>