<svg xmlns="http://www.w3.org/2000/svg" viewBox="0 0 212.21 63"><defs><style>.cls-1,.cls-6{fill:#fff;}.cls-1{stroke:#cfeaef;}.cls-1,.cls-3,.cls-4{stroke-miterlimit:10;}.cls-1,.cls-4{stroke-width:3px;}.cls-2{fill:#006173;}.cls-3{fill:#4ba573;stroke:#1d5d42;stroke-width:1.9px;}.cls-4{fill:#f5b244;stroke:#f18c40;}.cls-5{fill:#f18c40;}</style></defs><g id="레이어_2" data-name="레이어 2"><g id="레이어_1-2" data-name="레이어 1"><path class="cls-1" d="M206.07,50.6a13.35,13.35,0,0,0,.24-2.47A13.14,13.14,0,0,0,181,43.2a5.35,5.35,0,0,0-1.75-.29,5.54,5.54,0,0,0-5.54,5.54,4.19,4.19,0,0,0,0,.5,6.16,6.16,0,0,0,.45,12.31c5.8,0,8.13.53,19,0,10.17-.49,14.63.81,16.62-2.21a5.84,5.84,0,0,0,.31-5.7A6,6,0,0,0,206.07,50.6Z"/><path class="cls-1" d="M29.52,12.5a11,11,0,0,0-21.81-2H7.52c-2.61,0-5.75,2.83-6,6a6.83,6.83,0,0,0,2,5c2.27,2.32,5,2,14,2,11.43.05,14.13.33,16-2,1.1-1.37,2-3.86,1-6C33.22,12.82,29.74,12.52,29.52,12.5Z"/><path class="cls-2" d="M34.33,14a3.93,3.93,0,0,1,2.33,2.56,9.77,9.77,0,0,1-.29,4.8,12.65,12.65,0,0,0-.32,1.28c-.25,1.24-.59,2.6-1,4.1-.47,1.79-.77,3.05-.9,3.77a4,4,0,0,1-.25.9,1.16,1.16,0,0,0-.13.64,3.6,3.6,0,0,1-.42,1.34,3.58,3.58,0,0,1-.86,1.28,2.77,2.77,0,0,1-2.62.77,3,3,0,0,1-2.18-1.79,4.42,4.42,0,0,1,0-2.82c.17-.72.38-1.58.64-2.56a3.1,3.1,0,0,1,.13-.61c.08-.32.15-.54.19-.67.08-.47.17-.87.26-1.21a5.58,5.58,0,0,1,.19-1,24.15,24.15,0,0,0,.89-4l.07-.58H27.93c-1.46,0-2.71.05-3.78.13a7.44,7.44,0,0,1-2.78-.09,3,3,0,0,1-1.57-1.25,3.2,3.2,0,0,1-.39-1.47,1.71,1.71,0,0,1,.26-1.28.53.53,0,0,0,.19-.36c0-.1.19-.33.58-.67a4.11,4.11,0,0,1,1.57-.8,13.41,13.41,0,0,1,3-.22,31,31,0,0,0,3.78-.19Q33.17,13.48,34.33,14Zm14.4,24.45a3.76,3.76,0,0,1,.92.83,2.46,2.46,0,0,1,.55.9,3.45,3.45,0,0,0,.19.57,27,27,0,0,1,.13,3.84c0,1.41,0,2.51-.07,3.3A8.62,8.62,0,0,1,50,50.12a4.68,4.68,0,0,1-.77,1.53,3.41,3.41,0,0,1-1.44.84,10.73,10.73,0,0,1-2.14.48c-.75.08-1.81.15-3.17.19-2.31.08-3.86.17-4.67.25a24.33,24.33,0,0,1-2.76.13,3.9,3.9,0,0,0-1.5.16c-.15.11-.22.55-.22,1.31v.32c0,.6.18.94.67,1s2.21.13,5.15.13h2.88c3.28,0,5.23.08,5.82.12a2,2,0,0,1,1.41.64.24.24,0,0,1,.07.13A2.92,2.92,0,0,1,50.23,60a3.13,3.13,0,0,1-1.82,2.21c-.77.42-3.87.58-9.28.48s-8.6-.38-9.54-.8a4.24,4.24,0,0,1-1.86-1.7,8.07,8.07,0,0,1-.76-3q-.39-5.76.64-7.42A4.33,4.33,0,0,1,29.46,48a10.56,10.56,0,0,1,3.46-.51,16.44,16.44,0,0,0,2.62-.19,21.17,21.17,0,0,1,3.14-.13c3.24,0,5.12-.13,5.63-.38.13-.09.19-.49.19-1.22a2,2,0,0,0-.32-1.25c-.17-.14-.62-.16-1.34,0-.56.09-2.77.17-6.63.26s-6,.08-6.43,0a3.17,3.17,0,0,1-2.69-2,3,3,0,0,1,.71-3.2,2.53,2.53,0,0,1,1.41-.76c.51-.09,2.28-.15,5.31-.2,4-.08,6.61-.15,7.81-.19Q47.9,37.92,48.73,38.44Zm-.55-28.07a3.54,3.54,0,0,1,1.38.8,3.92,3.92,0,0,1,.73,1.73,25.62,25.62,0,0,1,.16,3.59,15.05,15.05,0,0,0,.16,3.1c.11.23.59.31,1.44.22q5.25-.25,5.89,0a4.08,4.08,0,0,1,.83.58c.3.26.45.45.45.58s.07.15.19.19.23.19.29.45a1.5,1.5,0,0,0,.16.44,1,1,0,0,1,.13.64,1.25,1.25,0,0,1-.19.77,1.45,1.45,0,0,0-.19.58c0,.13-.15.34-.45.64a5.82,5.82,0,0,1-.83.7,19.77,19.77,0,0,1-5,.64,9.56,9.56,0,0,0-2.62.39c-.3.25-.41,1.53-.32,3.84q.2,3.9-.51,4.92a2.91,2.91,0,0,1-2.69,1.22,3.46,3.46,0,0,1-2.69-1.66c-.21-.34-.33-4.08-.35-11.2s.07-10.9.29-11.33a3.42,3.42,0,0,1,2.11-2A3.45,3.45,0,0,1,48.18,10.37Z"/><path class="cls-2" d="M64.85,14.57a5.07,5.07,0,0,1,.84.19,2.61,2.61,0,0,1,1.85,1.47,19.15,19.15,0,0,1,.19,4.86c-.08,3.42-.12,5.48-.09,6.18s.11,1.1.29,1.18a15.16,15.16,0,0,0,3.68.16,41,41,0,0,0,4.7-.22,2.94,2.94,0,0,1,1.73.06,2.22,2.22,0,0,0,.57.2c.3,0,.69.37,1.16,1.12a2.5,2.5,0,0,1,.57,1.63,4,4,0,0,1-.86,1.89,4.7,4.7,0,0,1-1.83,1.12q-.83.31-6.65.32a42.57,42.57,0,0,1-6.66-.26A4.18,4.18,0,0,1,62,32.93a6.77,6.77,0,0,1-.68-3.26q-.12-2.37,0-7.3a32.2,32.2,0,0,1,.42-5.56,3.25,3.25,0,0,1,2.18-2A6.39,6.39,0,0,1,64.85,14.57ZM83,40.74a13.85,13.85,0,0,1,3.29.71l.51.25a8.39,8.39,0,0,1,2.31,1.6,6.37,6.37,0,0,1,1.18,1.57,7.29,7.29,0,0,1,.8,1.76,27.32,27.32,0,0,1,.55,3A8.75,8.75,0,0,1,91.48,52a14.88,14.88,0,0,1-1.28,3.77,8.79,8.79,0,0,1-4.29,4.16,8.52,8.52,0,0,1-1.6.71,1.87,1.87,0,0,0-.64.19,8.48,8.48,0,0,1-2.75.25,11,11,0,0,1-3.2-.32,9.46,9.46,0,0,1-6.34-4.6,8.22,8.22,0,0,1-1.18-4.74,11.26,11.26,0,0,1,1.28-4.58,11.39,11.39,0,0,1,3.32-3.8,13.16,13.16,0,0,1,5-2.31A9.61,9.61,0,0,1,83,40.74Zm-3.84,7.2a4.57,4.57,0,0,0-2.4,3,2.91,2.91,0,0,0,.48,3,4.45,4.45,0,0,0,3.29,1,5.3,5.3,0,0,0,3-.67,5,5,0,0,0,1.6-2.53,6.21,6.21,0,0,0,.16-1.44,2.53,2.53,0,0,0-.09-1.12c-.09,0-.16-.19-.2-.45a1.56,1.56,0,0,0-.57-.73,2.39,2.39,0,0,0-1-.48A6.28,6.28,0,0,0,79.16,47.94Zm9.37-36.48a2.81,2.81,0,0,1,1.67.93A2.68,2.68,0,0,1,91,13.77a29.42,29.42,0,0,1,.12,3.48c0,.26,0,.62-.06,1.09a4.94,4.94,0,0,0,.29,2.31c.19.21.88.32,2.08.32h1a19.89,19.89,0,0,1,3.33.16,2.81,2.81,0,0,1,1.4.92,3.39,3.39,0,0,1,1,2.21,3.06,3.06,0,0,1-.93,2.21,2.11,2.11,0,0,1-1.19.74,30.16,30.16,0,0,1-3.1.09,16.18,16.18,0,0,0-3.3.1q-.48.17-.54,1A36.87,36.87,0,0,0,91,32.81a26.91,26.91,0,0,1-.17,3.87,2.93,2.93,0,0,1-.86,1.57,2.64,2.64,0,0,1-2.88.57,3.3,3.3,0,0,1-2.18-2.3q-.25-.9-.25-11.46t.25-11.26a4.15,4.15,0,0,1,1.86-2.18A2.62,2.62,0,0,1,88.53,11.46Z"/><path class="cls-2" d="M110.26,13.8a27.22,27.22,0,0,1,5.15.25,4.06,4.06,0,0,1,3.07,3.46,37.23,37.23,0,0,1,.07,4.48q-.06,3.72-.26,6.72a4.7,4.7,0,0,1-3.65,4.61,20.78,20.78,0,0,1-5.5.19c-2.86-.13-4.57-.34-5.12-.64a4.64,4.64,0,0,1-1.73-1.41,5.73,5.73,0,0,1-.77-2.11,56.86,56.86,0,0,1-.19-6.21,44.93,44.93,0,0,1,.19-5.82,4.44,4.44,0,0,1,1.19-2.21A5.34,5.34,0,0,1,105,14,37.39,37.39,0,0,1,110.26,13.8Zm-.1,6.24a10.84,10.84,0,0,0-2.24.09c-.21.05-.34,1.19-.38,3.43s0,3.47.26,3.68a4.42,4.42,0,0,0,2.08.29c1.21,0,1.91-.08,2.08-.29s.27-1.35.32-3.52a13.93,13.93,0,0,0-.13-3.52A6.74,6.74,0,0,0,110.16,20Zm11.78,18.08c3.58-.09,5.7-.11,6.34-.07a2.51,2.51,0,0,1,1.53.58l.13.13A3.35,3.35,0,0,1,131,40.49a32.34,32.34,0,0,1,.19,4.73,44,44,0,0,1-.13,4.58,2.9,2.9,0,0,1-.89,1.63,4.52,4.52,0,0,1-2.72,1.34q-1.7.27-10.4.58a9.08,9.08,0,0,0-2.47.29,2.09,2.09,0,0,0-.16,1.09,2,2,0,0,0,.19,1.12c.09.17,1.28.29,3.59.38s4.58.11,6.85.06a20.64,20.64,0,0,1,3.45.1,3,3,0,0,1,1.57.8c.45.43.67.68.67.77a1.83,1.83,0,0,0,.19.51,2,2,0,0,1-.12,2.14,4,4,0,0,1-2.05,1.7q-1.15.39-8.77.22c-5.08-.1-8-.31-8.83-.6a4.54,4.54,0,0,1-2.53-2,13,13,0,0,1-.67-4.83,14.87,14.87,0,0,1,.32-4.55,3.27,3.27,0,0,1,.67-1.4,3.62,3.62,0,0,1,1.18-1,10,10,0,0,1,2.72-.57c1.22-.13,3.36-.26,6.44-.39,3.79-.13,5.8-.34,6-.64a4.52,4.52,0,0,0,0-1.12,2.8,2.8,0,0,0-.16-1.12q-.18-.32-6.27.07a37.76,37.76,0,0,1-8.06,0,3.21,3.21,0,0,1-2.69-2,2.46,2.46,0,0,1,.74-3.14,6.87,6.87,0,0,1,4.64-1c.93,0,3.11,0,6.52,0Q120.73,38.12,121.94,38.12Zm6.11-27.84c.54,0,.84,0,.93.13a1.75,1.75,0,0,0,.38.19,1.83,1.83,0,0,1,1.48,1.34,16.87,16.87,0,0,1,.44,4.23v1.15a5,5,0,0,0,.26,2.21c.17.19.79.26,1.86.22a7.79,7.79,0,0,1,.89-.06c2.82-.13,4.44-.07,4.87.19a4.71,4.71,0,0,1,.92.93,2.16,2.16,0,0,1,.55.86.83.83,0,0,0,.19.51,2.45,2.45,0,0,1-.35,1.86c-.41.81-.78,1.21-1.12,1.21-.09,0-.19.07-.32.2-.3.25-1.77.44-4.42.57a7.69,7.69,0,0,0-1,.07c-1.15,0-1.83.19-2.05.44a5.44,5.44,0,0,0-.25,2.56v1.22c0,2.13-.11,3.46-.19,4a2.41,2.41,0,0,1-.9,1.41,2.91,2.91,0,0,1-3.17.51,3.28,3.28,0,0,1-2-2.75q-.14-1-.13-10.53t.19-10.15a4,4,0,0,1,1.79-2.3A4.55,4.55,0,0,1,128.05,10.28Z"/><path class="cls-2" d="M145.75,14.57a5.31,5.31,0,0,1,.83.19,2.65,2.65,0,0,1,1.86,1.47,19.67,19.67,0,0,1,.19,4.86q-.13,5.13-.1,6.18c0,.7.12,1.1.29,1.18a15.21,15.21,0,0,0,3.68.16,40.74,40.74,0,0,0,4.7-.22,2.93,2.93,0,0,1,1.73.06,2.12,2.12,0,0,0,.58.2c.3,0,.68.37,1.15,1.12a2.52,2.52,0,0,1,.58,1.63,4.05,4.05,0,0,1-.87,1.89,4.58,4.58,0,0,1-1.82,1.12q-.84.31-6.66.32a42.4,42.4,0,0,1-6.65-.26,4.17,4.17,0,0,1-2.34-1.54,6.68,6.68,0,0,1-.67-3.26q-.14-2.37,0-7.3a31.08,31.08,0,0,1,.42-5.56,3.23,3.23,0,0,1,2.17-2A6.09,6.09,0,0,1,145.75,14.57Zm18.14,26.17a14.07,14.07,0,0,1,3.3.71l.51.25a8.37,8.37,0,0,1,2.3,1.6,6.38,6.38,0,0,1,1.19,1.57,8.17,8.17,0,0,1,.8,1.76,24.64,24.64,0,0,1,.54,3,8.37,8.37,0,0,1-.16,2.37,14.49,14.49,0,0,1-1.28,3.77,8.79,8.79,0,0,1-4.29,4.16,8.52,8.52,0,0,1-1.6.71,1.93,1.93,0,0,0-.64.19,8.48,8.48,0,0,1-2.75.25,11,11,0,0,1-3.2-.32,9.44,9.44,0,0,1-6.33-4.6,8.15,8.15,0,0,1-1.19-4.74,11.42,11.42,0,0,1,1.28-4.58,11.54,11.54,0,0,1,3.33-3.8,13.11,13.11,0,0,1,5-2.31A9.62,9.62,0,0,1,163.89,40.74Zm-3.84,7.2a4.62,4.62,0,0,0-2.4,3,2.93,2.93,0,0,0,.48,3,4.46,4.46,0,0,0,3.3,1,5.32,5.32,0,0,0,3-.67,5,5,0,0,0,1.6-2.53,7.58,7.58,0,0,0,.16-1.44,2.45,2.45,0,0,0-.1-1.12c-.09,0-.15-.19-.19-.45a1.66,1.66,0,0,0-.58-.73,2.4,2.4,0,0,0-1-.48A6.31,6.31,0,0,0,160.05,47.94Zm9.38-36.48a2.79,2.79,0,0,1,1.66.93,2.61,2.61,0,0,1,.77,1.38,28.56,28.56,0,0,1,.13,3.48,10.69,10.69,0,0,1-.07,1.09,4.94,4.94,0,0,0,.29,2.31c.19.21.89.32,2.08.32h1a19.89,19.89,0,0,1,3.33.16,2.79,2.79,0,0,1,1.41.92,3.33,3.33,0,0,1,1,2.21,3.06,3.06,0,0,1-.93,2.21,2.09,2.09,0,0,1-1.18.74,30.41,30.41,0,0,1-3.11.09,16.11,16.11,0,0,0-3.29.1c-.32.11-.5.44-.55,1a42,42,0,0,0-.06,4.42,27.48,27.48,0,0,1-.16,3.87,3.07,3.07,0,0,1-.86,1.57,2.65,2.65,0,0,1-2.88.57,3.28,3.28,0,0,1-2.18-2.3q-.25-.9-.26-11.46t.26-11.26a4.06,4.06,0,0,1,1.86-2.18A2.6,2.6,0,0,1,169.43,11.46Z"/><path class="cls-3" d="M185.19,19.26c-6.16-1.32-11.21.36-13.08,2a15.42,15.42,0,0,0-3.42,4.82h0a10.72,10.72,0,0,0,3.64,1.24,12.47,12.47,0,0,0,5-.46C182.42,25.3,184.83,20.06,185.19,19.26Z"/><path class="cls-4" d="M90.49,52.25s0,.22-.07.44a9.29,9.29,0,0,1-3.1,5.52c-2.57,2.11-5.83,2.14-7.75,2.17h-.51c-1.81,0-5.85-.12-8.43-2.85a8.06,8.06,0,0,1-2-4.15,8.44,8.44,0,0,1,1-5.14,11.1,11.1,0,0,1,5.63-5.09,13.36,13.36,0,0,1,6-1c2.43,0,5.1.1,7,2a8.6,8.6,0,0,1,2,4A10.63,10.63,0,0,1,90.49,52.25Z"/><ellipse class="cls-5" cx="77.54" cy="56.84" rx="0.89" ry="0.83"/><ellipse class="cls-5" cx="80.77" cy="54.55" rx="0.89" ry="0.83"/><ellipse class="cls-5" cx="83.93" cy="55.35" rx="0.89" ry="0.83"/><ellipse class="cls-5" cx="86.27" cy="53.12" rx="0.89" ry="0.83"/><path class="cls-6" d="M47.29,40.19c-.06,0,0,0,0,0l.06,0,.13.07h0a.18.18,0,0,0,.07.05l.11.09a1.57,1.57,0,0,1,.34.42,3.41,3.41,0,0,1,.41,1.25c0,.2.34.24.5.23a.86.86,0,0,0,.35-.06c.06,0,.16-.09.15-.17a3.42,3.42,0,0,0-.48-1.43,2.12,2.12,0,0,0-1.14-.88.77.77,0,0,0-.68.08c-.18.15,0,.28.18.32Z"/><path class="cls-6" d="M33.36,15.69l.12,0h0l0,0,.12.06s.07,0,.1,0l0,0,0,0,.06,0,.09.06c.06.06.13.11.19.18l0,0s0-.05,0,0l.07.09a2.43,2.43,0,0,1,.14.2,2.07,2.07,0,0,1,.2.46l0-.06a.83.83,0,0,1,0,.15c0,.2.33.24.5.24a.69.69,0,0,0,.35-.07c.06,0,.17-.09.15-.17a2.32,2.32,0,0,0-1.68-1.74,1,1,0,0,0-.38,0,.77.77,0,0,0-.3.11c-.17.16,0,.28.18.33Z"/><path class="cls-6" d="M63,31.65a2.12,2.12,0,0,0,.75,1.59,2.66,2.66,0,0,0,2,.63c.13,0,.45-.11.35-.29s-.44-.18-.61-.17h-.1l-.09,0c-.1,0,.11,0,0,0l-.09,0-.06,0-.05,0L65,33.25l-.08,0c.07,0,0,0,0,0a2.34,2.34,0,0,1-.3-.25,1.38,1.38,0,0,1-.21-.25,2.07,2.07,0,0,1-.19-.32,1.61,1.61,0,0,1-.15-.72c0-.2-.37-.24-.5-.23s-.5,0-.5.23Z"/><path class="cls-6" d="M96.27,22.82l.09,0c.12,0-.11,0,0,0h.1c.09,0-.09,0,0,0s.14,0,.17,0-.07,0,0,0h0l.09,0,.1,0c-.07,0,0,0,0,0L97,23l.07,0s.09.06,0,0l.16.11A2,2,0,0,1,98,24.3c0,.2.33.24.5.24a.84.84,0,0,0,.35-.07c.06,0,.16-.09.15-.17a2.62,2.62,0,0,0-3-1.94c-.12,0-.45.1-.35.29s.45.19.62.17Z"/><path class="cls-6" d="M103.84,18.52a1.69,1.69,0,0,1,.27-1.39,1.91,1.91,0,0,1,.52-.5s0,0,0,0l.08-.05.08,0s.11,0,0,0,.18-.06.18-.05-.08,0,0,0h.15c.13,0,.45-.11.35-.29S105,16,104.87,16a2.16,2.16,0,0,0-2,2.63c0,.07.18.13.23.14a1,1,0,0,0,.39,0c.16,0,.41-.09.35-.3Z"/><path class="cls-6" d="M127.45,40.24c-.15,0,0,0,0,0h.09c.12,0-.07,0,0,0l.09,0,.09,0s.12,0,0,0a.87.87,0,0,1,.17.07l.18.1s0,0,0,0l0,0,.08.06a3.31,3.31,0,0,1,.3.25,2.28,2.28,0,0,1,.42.6,2,2,0,0,1,.22.72c0,.2.34.24.5.24a.69.69,0,0,0,.35-.07c.06,0,.16-.09.15-.17a2.59,2.59,0,0,0-.82-1.6,3,3,0,0,0-1.91-.77c-.13,0-.5,0-.5.24s.38.22.5.23Z"/><path class="cls-6" d="M144,31.89a3.23,3.23,0,0,0,2.37,2,.81.81,0,0,0,.68-.08c.17-.14,0-.3-.18-.33a2.14,2.14,0,0,1-.34-.09h0l-.09,0-.17-.08-.15-.08h0l-.08,0-.28-.22a2.22,2.22,0,0,1-.44-.48,3.2,3.2,0,0,1-.34-.63c0-.08-.16-.13-.23-.15a1,1,0,0,0-.38,0c-.14,0-.43.09-.35.29Z"/><path class="cls-6" d="M169.75,13.44a6.24,6.24,0,0,1,.62,3.18c0,.32,1,.34,1,0a6.54,6.54,0,0,0-.65-3.31c-.14-.28-1.12-.19-1,.13Z"/><path class="cls-6" d="M28.83,59a2.37,2.37,0,0,0,.88,1.66,2.92,2.92,0,0,0,2.13.61c.13,0,.45-.11.35-.29s-.44-.18-.61-.17.1,0,0,0h-.1c-.11,0,.1,0,0,0l-.1,0h0l-.1,0-.1,0s-.09,0,0,0a2,2,0,0,1-.36-.18c.05,0,0,0,0,0l-.08-.06-.17-.14a2,2,0,0,1-.46-.6,1.62,1.62,0,0,1-.21-.75c0-.2-.36-.24-.5-.24s-.52,0-.5.24Z"/><path class="cls-6" d="M110,58.36a2.11,2.11,0,0,0,.58,1.73,2.55,2.55,0,0,0,1.91.82c.13,0,.5,0,.5-.23s-.38-.24-.5-.24h-.07c.09,0,0,0-.06,0h0s-.07,0-.09,0l-.09,0c-.09,0,.06,0,0,0l-.19-.09-.1,0c.06,0,0,0,0,0l-.16-.12a1.59,1.59,0,0,1-.26-.26,1.91,1.91,0,0,1-.43-1.48c0-.08-.1-.15-.15-.17a.84.84,0,0,0-.35-.07c-.16,0-.47,0-.5.24Z"/><path class="cls-6" d="M48.29,12.12a2.76,2.76,0,0,1,.53,1,3.74,3.74,0,0,1,.25,1.28c0,.2.37.24.5.24s.49,0,.5-.24A4.08,4.08,0,0,0,49.78,13a2.94,2.94,0,0,0-.63-1.13.84.84,0,0,0-.3-.11,1,1,0,0,0-.39,0c-.15,0-.33.16-.17.32Z"/><path class="cls-6" d="M166.73,42.88a5,5,0,0,1,1.62.86,2.46,2.46,0,0,1,.85,1.53c0,.2.34.24.5.24s.52,0,.5-.24a2.77,2.77,0,0,0-1-1.76,5.7,5.7,0,0,0-2-1,.8.8,0,0,0-.69.08c-.17.16,0,.28.18.33Z"/></g></g></svg>