<svg xmlns="http://www.w3.org/2000/svg" viewBox="0 0 89.42 111.92"><defs><style>.cls-1{fill:#bbbaba;}.cls-2{fill:#666;}.cls-3{fill:#fff;}</style></defs><g id="레이어_2" data-name="레이어 2"><g id="레이어_1-2" data-name="레이어 1"><path class="cls-1" d="M78,29.09a3.85,3.85,0,0,0-1-1.76,3.63,3.63,0,0,0-2-.8C69,25.85,42.65,25,42.65,25c-1.39,0-5-.19-9.26-.37L16,24.15a14,14,0,0,0-6.61,2.5A8.16,8.16,0,0,0,6.57,30c-.69,1.6-.54,2.92-.26,5.53a28.24,28.24,0,0,0,2.32,8.31A9.49,9.49,0,0,0,10.49,47c2,2.08,5.29,2.22,8.2,2.22l38,.07a60,60,0,0,0,12.43-.84,12.24,12.24,0,0,0,4.77-1.88C77,44.33,78,40.25,78.4,36.48A17.35,17.35,0,0,0,78,29.09Z"/><path class="cls-2" d="M80.44,28.43a6,6,0,0,0-4.2-4.21,16.23,16.23,0,0,0-2.78-.33c-2.06-.17-4.13-.28-6.19-.39-5.3-.27-10.61-.48-15.92-.68-7.17-.26-14.34-.57-21.51-.77l-12.78-.37c-5.3-.15-12,3.14-13.26,8.74a15.84,15.84,0,0,0,0,5.32,28.34,28.34,0,0,0,1.31,6c1.13,3.31,2.49,7,5.81,8.63,3.7,1.83,8.23,1.34,12.23,1.35l14.5,0,14.74,0a110.23,110.23,0,0,0,14.08-.4c4.42-.56,8.7-1.65,11.42-5.46,2.23-3.12,2.84-7.22,3.12-10.95a17.71,17.71,0,0,0-.61-6.52c-.93-3.07-5.76-1.76-4.82,1.33,1,3.28.49,7.2-.48,10.44a8.76,8.76,0,0,1-1.94,3.63A8.5,8.5,0,0,1,68.66,46c-4.09.9-8.32.81-12.48.8l-13.5,0-13.24,0c-4.25,0-8.54.17-12.78-.06a7.26,7.26,0,0,1-4.09-1.15,7.55,7.55,0,0,1-1.88-3.18,27,27,0,0,1-2.11-9.5,3.83,3.83,0,0,1,.15-1.49c0-.14.09-.28.14-.41s-.16.34-.06.13a5.7,5.7,0,0,1,.32-.6,7.93,7.93,0,0,1,3.52-2.86,12,12,0,0,1,2.22-.72L16,26.66c.95-.17,0,0,.06,0l1.11,0L28.88,27c6.43.18,12.87.46,19.31.69,8.69.3,17.44.44,26.1,1.25.2,0,.93.19.48.05.52.16.67.23.85.75A2.56,2.56,0,0,0,78.7,31.5,2.51,2.51,0,0,0,80.44,28.43Z"/><path class="cls-1" d="M19.65,24c4.24.21,9.36.44,13.74.63l33.68,1a21.73,21.73,0,0,0-2.55-9.94,22.41,22.41,0,0,0-6-7,28.12,28.12,0,0,0-14-6,27.35,27.35,0,0,0-16,3,25.91,25.91,0,0,0-11,11,24.62,24.62,0,0,0-2.38,7.46l.83,0A20.44,20.44,0,0,1,19.65,24Z"/><path class="cls-2" d="M19.65,26.52c14,.68,28,1,42,1.43l5.4.16a2.53,2.53,0,0,0,2.5-2.5,24.25,24.25,0,0,0-7-16.72A31.11,31.11,0,0,0,48.06.79,30,30,0,0,0,22.58,6.62a27.12,27.12,0,0,0-9.85,16.84,2.55,2.55,0,0,0,2.41,3.17c1.5,0,3-.18,4.51-.11,3.21.15,3.2-4.85,0-5-1.52-.07-3,.15-4.51.11l2.41,3.16A23.43,23.43,0,0,1,35,5.79,24.89,24.89,0,0,1,41.85,5c.77,0,1.53.06,2.29.14.12,0,.88.11.39,0s.45.08.63.11a26.12,26.12,0,0,1,12.43,5.85,19.49,19.49,0,0,1,7,14.48l2.5-2.5-32.71-.93c-4.91-.14-9.81-.42-14.71-.66C16.43,21.36,16.44,26.36,19.65,26.52Z"/><path class="cls-1" d="M76.52,86.67c-.29-14.43-3.23-28.61-5.63-38.1l-53.57,1c-2.41,11.57-3.87,21.46-4.8,29.06-1.48,12.13-2.08,18.62,2,23,1.27,1.37,2.88,2.42,8,4,6.52,2,22.65,6.78,41,1,4.75-1.49,7.14-2.9,9-5C76.45,97.25,76.62,91.41,76.52,86.67Z"/><path class="cls-2" d="M79,86.67A175.92,175.92,0,0,0,73.32,47.9a2.56,2.56,0,0,0-2.43-1.84l-18.07.35L24,47l-6.67.13a2.55,2.55,0,0,0-2.42,1.84c-2.14,10.3-3.8,20.68-5.06,31.12-.89,7.38-2.74,16.85,2.6,23,2.42,2.81,6.16,4,9.58,5.05a89.22,89.22,0,0,0,9.23,2.37,67.38,67.38,0,0,0,30.81-.8c5.06-1.39,10-3.25,13.28-7.57S79.13,92,79,86.67c-.06-3.22-5.08-3.24-5,0,.08,4,0,8.28-2.22,11.81-2,3.26-5.27,4.62-8.94,5.77A61,61,0,0,1,34.35,106a80.94,80.94,0,0,1-9.47-2.25c-1.68-.49-3.37-1-5-1.64a14.54,14.54,0,0,1-1.85-.87c-.25-.14-.49-.3-.74-.45-.59-.38.07.13-.38-.3-.17-.16-.34-.31-.5-.48s-.59-.67-.51-.57l-.15-.2-.31-.47c-.18-.29-.33-.59-.49-.89,0-.11-.25-.57-.07-.13-.06-.15-.11-.29-.16-.44s-.2-.6-.28-.9-.16-.64-.23-1L14.12,95c-.1-.55,0,.15-.06-.37a52.68,52.68,0,0,1,.5-11.9q1.83-16.32,5.18-32.42l-2.42,1.84,18.07-.35,28.84-.56,6.66-.13-2.42-1.84A169.85,169.85,0,0,1,74,86.67C74.08,89.9,79.11,89.91,79,86.67Z"/><path class="cls-1" d="M54.12,70.17c-.68,5.33-2,6.63-2.61,7.14a9.64,9.64,0,0,1-5.71,1.75,18.76,18.76,0,0,1-5.19-.42,7.79,7.79,0,0,1-4-3c-1.44-2.16-1.22-4.65-1-6.44,1-7.59,3.93-16.71,4.87-19.52,4-.33,12-.72,12-.72C55,63.15,54.12,70.17,54.12,70.17Z"/><path class="cls-2" d="M51.7,69.5a20.75,20.75,0,0,1-1.1,4.86c.14-.37,0,.07-.1.2s-.22.35-.31.53c-.2.41.1-.09.07-.06s-.19.22-.3.31-.34.26,0,0a5.25,5.25,0,0,1-1,.57,7.75,7.75,0,0,1-1.88.53,15.5,15.5,0,0,1-5.8-.25c-.12,0-.57-.22-.26-.08a5.39,5.39,0,0,1-.9-.52,5.12,5.12,0,0,1-1.42-1.44,6.79,6.79,0,0,1-.59-4.53,72.55,72.55,0,0,1,2.2-10.6q1.19-4.39,2.63-8.71l-2.42,1.84c4-.32,8-.58,12-.72l-2.42-1.84A103.37,103.37,0,0,1,51.75,65a35.55,35.55,0,0,1-.14,5.16,2.52,2.52,0,0,0,2.51,2.51,2.57,2.57,0,0,0,2.51-2.51,36.19,36.19,0,0,0,.14-5.41A113.93,113.93,0,0,0,55,48.29a2.52,2.52,0,0,0-2.42-1.85c-4,.14-8,.39-12,.72A2.62,2.62,0,0,0,38.1,49c-1,3-1.92,6-2.73,9.09A59.14,59.14,0,0,0,33,71a10.06,10.06,0,0,0,6.67,10,18,18,0,0,0,6.94.57,11.84,11.84,0,0,0,6-1.94c2.78-2,3.49-5.56,3.92-8.76a2.6,2.6,0,0,0-1.75-3.09C53.62,67.43,51.88,68.15,51.7,69.5Z"/><path class="cls-2" d="M62,64c3.22,0,3.23-5,0-5s-3.22,5,0,5Z"/><path class="cls-2" d="M25.23,63.22c3.22,0,3.23-5,0-5s-3.22,5,0,5Z"/><path class="cls-1" d="M85.52,58.67c-1.06-3.89-1.55-5.85-3-7-3.47-2.75-9.21-.34-10,0q2,10.5,4,21c.62,0,8-.42,10-5C87.36,65.75,86.8,63.38,85.52,58.67Z"/><path class="cls-2" d="M87.93,58a28.07,28.07,0,0,0-2.06-6.14,7.67,7.67,0,0,0-4.53-3.57c-3.31-1-7-.12-10.08,1.21a2.54,2.54,0,0,0-1.15,2.83q2,10.5,4,21a2.51,2.51,0,0,0,2.41,1.83,16.72,16.72,0,0,0,9.86-3.33,8.11,8.11,0,0,0,3-5.87c.15-2.65-.79-5.44-1.48-8-.84-3.1-5.66-1.79-4.82,1.33.36,1.31.72,2.62,1,3.94.11.49.21,1,.28,1.48-.07-.5,0,.23,0,.27,0,.21,0,.42,0,.64s0,.33,0,.49.15-.46,0,.08c-.05.14-.08.29-.13.43-.13.43.2-.27-.08.16-.13.2-.23.4-.37.59.25-.34-.1.11-.19.2s-.27.27-.4.4l-.26.22c.17-.14.19-.15,0,0a10.51,10.51,0,0,1-1.07.65l-.61.3c.32-.15,0,0-.13,0a17.82,17.82,0,0,1-2.34.68l-1,.19-.23,0h-.09c-.34,0-.67.07-1,.08L78.93,72q-2-10.5-4-21l-1.15,2.82c.07,0-.7.27-.11.05l.57-.21a14.55,14.55,0,0,1,1.71-.5A7.76,7.76,0,0,1,79.74,53a4.4,4.4,0,0,1,.69.25,5.55,5.55,0,0,1,.48.29c.31.2-.17-.19.12.1s.47.64.21.21c.16.26.32.51.46.79,0,0,.19.44.1.21s.07.23.09.27c.13.38.26.77.38,1.17.3,1,.57,2,.84,3C84,62.44,88.78,61.12,87.93,58Z"/><path class="cls-1" d="M5.75,53c-2.63,2.49-2.9,6-3.13,9-.19,2.4-.4,5.19,1.14,8,2.54,4.66,7.86,5.78,8.89,6l4-25C16.06,50.86,9.77,49.25,5.75,53Z"/><path class="cls-2" d="M4,51.27C1.54,53.7.65,56.82.28,60.15s-.59,6.62.66,9.7a14.78,14.78,0,0,0,11,8.58c1.21.24,2.85-.33,3.08-1.74l3.5-21.9.5-3.1a2.57,2.57,0,0,0-1.75-3.08C12.74,47.38,7.57,48,4,51.27,1.59,53.44,5.14,57,7.52,54.81a7.64,7.64,0,0,1,5.25-1.76,11.65,11.65,0,0,1,1.32.05,5.61,5.61,0,0,1,.59.06c-.33,0-.19,0,.06,0,.42.08.83.15,1.24.26l-1.75-3.07-3.5,21.89-.5,3.11,3.08-1.75c-.45-.09-.89-.19-1.33-.32s-.75-.24-1.12-.38c-.07,0-.55-.22-.22-.08L10,72.54A9,9,0,0,1,5.7,68.35c-1-2.28-.71-4.92-.5-7.34s.64-4.54,2.32-6.2C9.81,52.54,6.27,49,4,51.27Z"/><path class="cls-3" d="M40.52,90.67a8.26,8.26,0,0,0-.63,2.2c-.4,2.21-.86,5.23.86,6.86A3.94,3.94,0,0,0,46,99.65a6.2,6.2,0,0,0,1.27-2.14,15.9,15.9,0,0,0,1.09-5.61c0-1.64-.06-2.52-.74-3.41a4,4,0,0,0-3-1.51C42.22,87,40.84,90,40.52,90.67Z"/><path class="cls-2" d="M38.36,89.41a17.68,17.68,0,0,0-1.26,5.37,9.55,9.55,0,0,0,.65,5c1.67,3.71,6.63,4.44,9.65,2a9.64,9.64,0,0,0,2.77-4.94,19.05,19.05,0,0,0,.7-5.87,6.63,6.63,0,0,0-1.55-4.33,6.25,6.25,0,0,0-3.58-2c-3.43-.55-6,1.91-7.38,4.82a2.5,2.5,0,1,0,4.32,2.52,12.77,12.77,0,0,1,.94-1.65c.22-.33-.11.15-.14.18a3.45,3.45,0,0,0,.23-.28c.14-.16.3-.3.45-.46s-.1.1-.16.11.18-.13.24-.16a3.3,3.3,0,0,0,.32-.18c.17-.09.09,0-.26.1l.22-.07a2,2,0,0,0,.37-.09c-.06,0-.63,0-.2,0s-.07-.06-.1,0,.32.09.43.11c.33,0-.51-.3-.06,0,.09,0,.19.09.28.15s.2.16.25.16c-.32-.25-.38-.3-.19-.14l.09.08c.17.15.31.33.48.49-.56-.51-.29-.43-.17-.18a1.71,1.71,0,0,0,.17.33c-.06-.06-.17-.57-.1-.19a4.13,4.13,0,0,0,.1.44c-.13-.09,0-.54,0-.17,0,.16,0,.31,0,.46,0,.32,0,.64,0,1s0,.72-.05,1.07,0,.4-.06.6c0-.45,0,.16-.05.28a15,15,0,0,1-.48,2c-.11.34-.23.68-.36,1s0,.07,0,0c-.09.19-.18.38-.28.56s-.19.3-.28.44c-.19.3.39-.32-.08.06a1.39,1.39,0,0,0-.25.23c.2-.33.31-.2.09-.1,0,0-.55.25-.16.1s-.13,0-.18,0a2.72,2.72,0,0,0-.33.07l.24,0h-.6c-.55,0,.4.12.08,0a3.11,3.11,0,0,0-.41-.11c-.39-.1.15,0,.12.06a2.38,2.38,0,0,1-.29-.17c-.48-.23.24.27,0,0-.05,0-.32-.25-.3-.31l.18.24-.18-.28a1.39,1.39,0,0,1-.15-.3l.09.21-.07-.25L42.07,97,42,96.65l.05.32a3.51,3.51,0,0,0,0-.91c0-.33,0-.67,0-1,0-.16,0-.31,0-.46.05-.53-.09.51,0,0,0-.28.09-.57.14-.85s.11-.62.18-.92.08-.33.12-.49.3-.78.11-.36a2.56,2.56,0,0,0-.9-3.42A2.53,2.53,0,0,0,38.36,89.41Z"/></g></g></svg>