<svg xmlns="http://www.w3.org/2000/svg" viewBox="0 0 78.49 78.13"><defs><style>.cls-1{fill:#f5b244;stroke:#f18c40;stroke-width:2.4px;}.cls-1,.cls-2{stroke-miterlimit:10;}.cls-2{fill:#4ba573;stroke:#1d5d42;stroke-width:3px;}.cls-3{fill:#f18c40;}</style></defs><g id="레이어_2" data-name="레이어 2"><g id="레이어_1-2" data-name="레이어 1"><path class="cls-1" d="M77.22,50.88c-.13,1.81-.9,10.25-7,17-8.35,9.25-21,9.13-35,9-12-.12-19.59-.15-26-6-7.57-6.92-8-16.93-8-19-.19-11.67,7.2-19.22,9-21,7.84-7.76,17.51-8.65,24.49-9.29C40.15,21.12,63.5,19,73.2,33.9,77.66,40.74,77.38,48.57,77.22,50.88Z"/><path class="cls-2" d="M57.79,1.78C48,3.43,41.49,8.84,39.72,12.38a24.35,24.35,0,0,0-2.22,9.09h0a16.87,16.87,0,0,0,6.08-.3,19.79,19.79,0,0,0,7.12-3.59C57.23,12.28,57.73,3.17,57.79,1.78Z"/><path class="cls-2" d="M22.11,6.67c1.45,7.4,5.68,12.18,8.39,13.45a18.55,18.55,0,0,0,6.93,1.5h0a12.89,12.89,0,0,0-.35-4.6,15.12,15.12,0,0,0-2.87-5.32C30.06,6.88,23.16,6.68,22.11,6.67Z"/><circle class="cls-3" cx="53.3" cy="66.86" r="1.65"/><circle class="cls-3" cx="58.59" cy="60.84" r="1.65"/><circle class="cls-3" cx="68.16" cy="57.54" r="1.65"/><circle class="cls-3" cx="65.52" cy="50.63" r="1.65" transform="translate(3.41 105.39) rotate(-79.1)"/><circle class="cls-3" cx="66.45" cy="64.57" r="1.65"/></g></g></svg>