<svg xmlns="http://www.w3.org/2000/svg" viewBox="0 0 45.69 29.5"><defs><style>.cls-1{fill:#fff;stroke:#cfeaef;stroke-miterlimit:10;stroke-width:3px;}</style></defs><g id="레이어_2" data-name="레이어 2"><g id="레이어_1-2" data-name="레이어 1"><path class="cls-1" d="M39.55,17.1a12.54,12.54,0,0,0,.24-2.47A13.13,13.13,0,0,0,14.49,9.7a5.41,5.41,0,0,0-1.76-.29A5.54,5.54,0,0,0,7.2,15c0,.17,0,.33,0,.5a6.16,6.16,0,0,0,.45,12.31c5.8,0,8.13.53,19,0,10.16-.49,14.63.81,16.61-2.21a5.84,5.84,0,0,0,.32-5.7A6.06,6.06,0,0,0,39.55,17.1Z"/></g></g></svg>