<svg xmlns="http://www.w3.org/2000/svg" viewBox="0 0 88.52 93.22"><defs><style>.cls-1{fill:#f5b244;stroke:#f18c40;stroke-width:2.75px;}.cls-1,.cls-2{stroke-miterlimit:10;}.cls-2{fill:#4ba573;stroke:#1d5d42;stroke-width:3px;}.cls-3{fill:#f18c40;}</style></defs><g id="레이어_2" data-name="레이어 2"><g id="레이어_1-2" data-name="레이어 1"><path class="cls-1" d="M87,60.19c-.16,1.55-1.69,14.49-12.36,23.22-10,8.19-22.69,8.34-30.17,8.43-.78,0-1.43,0-2,0-7-.15-22.78-.48-32.85-11.13A31.15,31.15,0,0,1,1.71,64.54C.25,55,4,47.61,5.47,44.56c7-14.14,23.49-22.52,39-22.94,13.41-.36,31.75,5.1,39.16,19.78A34.79,34.79,0,0,1,87,60.19Z"/><path class="cls-2" d="M62.54,1.78c-9.83,1.65-16.3,7.06-18.07,10.6a24.47,24.47,0,0,0-2.23,9.09h0a16.93,16.93,0,0,0,6.09-.3,19.79,19.79,0,0,0,7.12-3.59C62,12.28,62.48,3.17,62.54,1.78Z"/><path class="cls-2" d="M26.86,6.67c1.45,7.4,5.68,12.18,8.39,13.45a18.55,18.55,0,0,0,6.93,1.5h0a13.18,13.18,0,0,0-.36-4.6A15,15,0,0,0,39,11.7C34.81,6.88,27.91,6.68,26.86,6.67Z"/><circle class="cls-3" cx="59.04" cy="83.86" r="1.65"/><circle class="cls-3" cx="62.34" cy="76.84" r="1.65"/><circle class="cls-3" cx="70.91" cy="73.54" r="1.65"/><circle class="cls-3" cx="75.26" cy="66.63" r="1.65"/></g></g></svg>